<?xml version="1.0" encoding="UTF-8" standalone="no"?>
<!DOCTYPE svg PUBLIC "-//W3C//DTD SVG 1.1//EN" "http://www.w3.org/Graphics/SVG/1.1/DTD/svg11.dtd">
<svg xmlns="http://www.w3.org/2000/svg" xmlns:xlink="http://www.w3.org/1999/xlink" version="1.1" width="1041.6666pt" height="1041.6666pt" viewBox="0 0 1041.6666 1041.6666">
<g enable-background="new">
<clipPath id="cp0">
<path transform="matrix(.6666666,0,0,.6666666,0,0)" d="M 0 0 L 1562.5 0 L 1562.5 1562.5 L 0 1562.5 Z " fill-rule="evenodd"/>
</clipPath>
<g clip-path="url(#cp0)">
<path transform="matrix(2.0833333,0,0,2.0833333,0,0)" d="M 0 0 L 500 0 L 500 500 L 0 500 Z " fill="#ffffff"/>
</g>
<clipPath id="cp1">
<path transform="matrix(.6666666,0,0,.6666666,0,0)" d="M 0 0 L 1562.5 0 L 1562.5 1562.5 L 0 1562.5 Z " fill-rule="evenodd"/>
</clipPath>
<g clip-path="url(#cp1)">
<path transform="matrix(2.0833333,0,0,2.0833333,0,0)" d="M 0 0 L 500 0 L 500 500 L 0 500 Z " fill="#ffffff"/>
</g>
<clipPath id="cp2">
<path transform="matrix(.6666666,0,0,.6666666,0,0)" d="M 0 0 L 1562.5 0 L 1562.5 1562.5 L 0 1562.5 Z " fill-rule="evenodd"/>
</clipPath>
<g clip-path="url(#cp2)">
<g id="Layer-1" data-name="H1">
<g id="Layer-2" data-name="P">
</g>
<symbol id="font_3_24">
<path d="M 3.3408204 .9322916 L 3.3408204 .9322916 C 3.2786458 .9394531 3.2159832 .9430339 3.152832 .9430338 C 3.1251629 .94401046 3.0970052 .9448242 3.0683594 .9454752 C 2.8076173 .95621749 2.5462239 .9589844 2.2841798 .953776 C 2.271159 .95377609 2.2604168 .95377609 2.2519532 .953776 C 2.2376302 .9547526 2.2272137 .95458987 2.2207032 .9532877 C 2.2141927 .9523112 2.2089844 .94873049 2.2050782 .94254556 C 2.2011719 .9366862 2.1966146 .9269206 2.1914063 .91324868 C 2.1878255 .9054362 2.1835938 .8956706 2.178711 .8839518 C 2.135091 .7888997 2.095052 .69222006 2.0585938 .5939127 C 2.0348309 .5304362 2.0164388 .46533204 2.003418 .39860026 C 1.9985352 .37776695 1.9967448 .35758464 1.9980469 .33805339 C 1.9996744 .31819663 2.0086263 .30045573 2.0249024 .28483073 C 2.027181 .28320313 2.0279949 .28125 2.0273438 .27897135 C 2.0266927 .2763672 2.0252279 .27408854 2.0229493 .2721354 C 2.0206707 .26985679 2.0182293 .26839195 2.015625 .26774089 C 1.9768881 .2618815 1.9536133 .27571617 1.9458008 .30924479 C 1.9412435 .328125 1.9404297 .3474935 1.9433594 .36735026 C 1.9433594 .36897788 1.9433594 .3701172 1.9433594 .37076823 C 1.9462891 .4049479 1.9523112 .43896485 1.9614258 .472819 C 1.9708659 .5063476 1.9812826 .540039 1.9926758 .5738932 C 2.0294598 .67545577 2.069987 .7757161 2.1142579 .87467446 C 2.1165364 .87890627 2.118327 .883138 2.119629 .88736978 C 2.1219075 .8922526 2.1243489 .89729818 2.1269532 .9025065 C 2.130534 .90966799 2.133789 .9168294 2.1367188 .92399087 C 2.1396485 .93115237 2.1407879 .93863937 2.1401368 .9464518 C 2.136556 .94938156 2.1329754 .9511719 2.1293946 .9518229 C 2.1258138 .95247396 2.1222332 .95247396 2.1186524 .9518229 C 2.1180013 .95182296 2.1171876 .95182296 2.116211 .9518229 C 2.085612 .95182296 2.0548504 .9514974 2.0239259 .9508463 C 2.0154622 .9508464 2.0065106 .9508464 1.9970703 .9508463 C 1.9856771 .9501953 1.9760742 .94661459 1.9682617 .9401041 C 1.9604492 .93359377 1.9529623 .92561849 1.9458008 .91617837 C 1.9363607 .9041341 1.9269205 .89208987 1.9174805 .88004556 C 1.8774414 .8289388 1.8370768 .7783203 1.7963867 .72819009 C 1.7361654 .6552734 1.6731771 .5849609 1.6074219 .51725259 C 1.5419922 .44954429 1.4724935 .38606773 1.3989258 .3268229 C 1.3064779 .25065104 1.2083334 .18359375 1.1044922 .12565103 C .945638 .040364576 .7791341 -.000000009934108 .60498049 .0045572819 C .44091798 .008138011 .29296876 .052408846 .16113281 .13736978 C .12402344 .1611328 .091145839 .18977864 .0625 .22330728 C .04329427 .24707031 .028157553 .27278648 .017089844 .30045573 C .0056966149 .32779948 0 .35758464 0 .3898112 C .0016276041 .4285482 .010579427 .46435548 .026855469 .49723307 C .04280599 .53043618 .065104167 .5605468 .09375 .58756509 C .13313802 .625651 .1764323 .65787759 .22363281 .68424478 C .26953126 .7109375 .31689454 .7342122 .36572267 .754069 C .41422526 .7742513 .46321617 .79215499 .5126953 .8077799 C .59277346 .8334961 .67366537 .85514327 .7553711 .8727213 C .83707687 .8902995 .9191081 .90527346 1.0014649 .9176432 C 1.1967774 .94466146 1.3925781 .9625651 1.5888672 .9713541 C 1.6891276 .97753909 1.7890625 .98063156 1.8886719 .9806315 C 1.9160156 .97998049 1.9371744 .99153646 1.9521484 1.0152994 C 1.9785156 1.0524088 2.0050457 1.089681 2.0317384 1.1271159 C 2.0730794 1.1844076 2.1137696 1.2426758 2.1538087 1.3019205 C 2.3400067 1.5799154 2.5183919 1.8624674 2.6889649 2.149577 C 2.7032879 2.173991 2.7172852 2.1987305 2.730957 2.2237957 C 2.7374676 2.236491 2.7443035 2.2493489 2.7514649 2.2623699 C 2.7599285 2.2789715 2.7734376 2.2882488 2.7919923 2.290202 C 2.8020833 2.290202 2.8094075 2.2872723 2.8139649 2.2814129 C 2.8188477 2.275879 2.8194988 2.2683919 2.815918 2.258952 C 2.8123372 2.2511395 2.8082684 2.2436524 2.803711 2.236491 C 2.7760418 2.1870118 2.7514649 2.1368817 2.7299805 2.0861004 C 2.7218426 2.0681966 2.7138673 2.0506185 2.7060548 2.033366 C 2.6308594 1.8702799 2.5553387 1.7070313 2.4794923 1.5436198 C 2.4215496 1.4176432 2.3631185 1.2913412 2.3041993 1.1647135 C 2.2872723 1.1272787 2.2705079 1.0900065 2.2539063 1.0528971 C 2.2503255 1.0450846 2.2467449 1.0375977 2.243164 1.0304362 C 2.242513 1.0288086 2.241862 1.0270182 2.241211 1.0250651 C 2.2389324 1.0198568 2.2369793 1.0146484 2.2353516 1.0094401 C 2.2340496 1.0045573 2.2345379 .9996745 2.2368165 .9947916 C 2.2416993 .99121096 2.2473958 .9892578 2.2539063 .98893228 C 2.2604168 .98860678 2.2664388 .98844406 2.2719727 .988444 C 2.27653 .98909506 2.2805989 .9894206 2.2841798 .98942056 C 2.311198 .98876956 2.338379 .98876956 2.3657227 .98942056 C 2.402832 .9894206 2.4401043 .98909506 2.477539 .988444 C 2.680664 .9848633 2.883952 .98046877 3.0874024 .9752604 C 3.154134 .9739583 3.2203778 .9711914 3.2861329 .9669596 C 3.2919923 .9663086 3.298177 .9659831 3.3046876 .96598306 C 3.3082684 .9659831 3.3121746 .9659831 3.3164063 .96598306 C 3.3248699 .9659831 3.3330079 .96516928 3.3408204 .9635416 C 3.3489583 .96223959 3.3566082 .95947268 3.3637696 .95524087 C 3.3650716 .95426437 3.366048 .9526367 3.3666993 .95035806 C 3.3673504 .94840499 3.3673504 .94677737 3.3666993 .9454752 C 3.3666993 .9431966 3.3657227 .94108077 3.3637696 .93912759 C 3.3621419 .9375 3.360677 .93636068 3.359375 .9357096 C 3.3535157 .93343099 3.3473309 .9322917 3.3408204 .9322916 M 1.8852539 .92692056 L 1.8852539 .92692056 C 1.8875326 .93147787 1.8876953 .9355469 1.8857422 .93912759 C 1.8841146 .9427083 1.8811849 .9444987 1.8769531 .94449868 C 1.8704428 .9451497 1.8636068 .9451497 1.8564453 .94449868 C 1.8528646 .9444987 1.8492838 .9444987 1.8457031 .94449868 C 1.5999349 .94156906 1.3540039 .9246419 1.1079102 .8937174 C 1.0138346 .8823242 .9202474 .8673503 .82714846 .84879556 C .7340495 .8302409 .64176437 .8069661 .55029299 .7789713 C .50146487 .7639974 .45328776 .7467448 .40576173 .7272135 C .3582357 .7080078 .31184898 .6850586 .26660157 .65836587 C .21940105 .63199868 .1764323 .5997721 .13769531 .56168618 C .092447917 .5151367 .06705729 .46565757 .061523439 .4132487 C .055664064 .3605143 .06966146 .30973307 .103515628 .26090495 C .12858074 .22672527 .15852864 .19742839 .19335938 .17301432 C .3203125 .08284504 .47151695 .036946607 .64697268 .035319 C .69189456 .035319 .74348959 .041178377 .8017578 .052897127 C .8597005 .0649414 .9156901 .08268228 .96972659 .10611978 C 1.0237631 .12923177 1.0761719 .15657552 1.1269531 .18815103 C 1.2522787 .26529948 1.3683268 .35514323 1.4750977 .45768229 C 1.5489909 .5270182 1.6186524 .5999349 1.684082 .67643228 C 1.7495117 .7532552 1.8129883 .8313802 1.8745117 .91080728 C 1.8780924 .9166667 1.8816732 .9220378 1.8852539 .92692056 M 2.184082 1.0279948 L 2.184082 1.0279948 C 2.2312825 1.1354166 2.279948 1.2425131 2.3300782 1.3492838 C 2.3323568 1.3551432 2.3398438 1.3719076 2.352539 1.3995768 C 2.3655599 1.4275717 2.380371 1.4599609 2.3969727 1.4967448 C 2.4138997 1.5338541 2.429362 1.5688477 2.4433594 1.6017252 C 2.4573568 1.6346029 2.4671224 1.6591797 2.4726563 1.6754557 C 2.4785157 1.6920573 2.476888 1.6936849 2.4677735 1.6803385 C 2.4654949 1.6774088 2.4637044 1.6744791 2.4624024 1.6715494 C 2.4545899 1.6601563 2.4471029 1.6487631 2.4399415 1.6373698 C 2.380371 1.5449219 2.3204754 1.4526367 2.260254 1.3605143 C 2.2000325 1.268392 2.1376954 1.1775717 2.0732423 1.0880534 C 2.0670574 1.0795899 2.0607098 1.0706381 2.0541993 1.0611979 C 2.0418294 1.0442709 2.0296224 1.027181 2.0175782 1.0099284 C 2.0126954 1.002767 2.0112305 .9967448 2.0131837 .99186196 C 2.0154622 .9873047 2.0205079 .98502609 2.0283204 .985026 C 2.041341 .98502609 2.0541993 .98535159 2.0668946 .98600259 C 2.087077 .9876302 2.1070965 .98844406 2.1269532 .988444 C 2.1422528 .98779299 2.154134 .99104818 2.1625977 .9982096 C 2.1710613 1.0053711 2.1782227 1.0152994 2.184082 1.0279948 Z "/>
</symbol>
<symbol id="font_3_5d">
<path d="M .14632163 .06852214 L .14632163 .06852214 C .13427736 .059733079 .12825522 .053548185 .12825522 .049967454 C .12825522 .046386724 .13216147 .04427084 .13997397 .043619798 C .14778647 .042968755 .15641277 .042643235 .16585288 .042643235 C .16878255 .043294278 .17122396 .043619798 .1731771 .043619798 C .20410156 .042968755 .23388672 .038736985 .26253257 .030924485 C .2709961 .027994797 .27929688 .023925787 .2874349 .018717453 L .28841148 .01774089 C .28971354 .01708985 .2906901 .015625006 .29134117 .013346359 C .29231773 .011393234 .29231773 .00960287 .29134117 .007975265 C .29134117 .006673182 .2903646 .005371099 .28841148 .0040690156 C .28678385 .003092453 .285319 .0022786509 .28401695 .0016276091 C .27815757 .0003255258 .27246095 .000000004967054 .2669271 .00065104666 C .20670574 .007812505 .14648439 .011067714 .08626302 .010416672 C .07486979 .010416672 .06315104 .010416672 .051106775 .010416672 C .047526044 .010416672 .04345703 .010091151 .038899743 .009440109 C .030436201 .008463547 .022623701 .008626307 .015462242 .00992839 C .008300784 .011555995 .0035807316 .01708985 .0013020858 .026529953 C .000000002483527 .03369141 .0019531276 .038899747 .007161461 .042154954 C .012044273 .04541016 .018066409 .048014329 .025227867 .049967454 C .03011068 .05159506 .034667974 .05371094 .038899743 .05631511 C .09000651 .08496094 .13916016 .11653646 .18636069 .15104167 C .2055664 .16471355 .22233074 .1805013 .23665366 .19840496 C .24088542 .2039388 .24169922 .20898438 .23909506 .21354167 C .2368164 .21842449 .23209636 .2211914 .2249349 .22184246 C .20279949 .2241211 .18131511 .22233074 .16048178 .21647136 L .15950522 .21647136 C .14453127 .21223958 .12906902 .20833333 .11311849 .20475261 C .10530599 .20345052 .098470058 .20589192 .09261068 .21207683 C .090657558 .21565755 .090657558 .21940105 .09261068 .2233073 C .09488932 .22753906 .09928385 .23095703 .10579427 .2335612 C .15234377 .25309248 .20100911 .2599284 .25179038 .25406904 C .26383464 .2521159 .27522788 .24853517 .28597007 .24332683 C .30680339 .23258464 .31184898 .21728516 .30110679 .19742839 C .2890625 .17594402 .2722982 .15755208 .2508138 .14225261 C .22281902 .12174479 .19417317 .10139974 .16487631 .08121745 C .15836589 .07698568 .152181 .07275391 .14632163 .06852214 Z "/>
</symbol>
<symbol id="font_3_4c">
<path d="M .23177083 .09765625 C .21451824 .07714844 .19401042 .05826823 .17024739 .041015626 C .14648438 .023763022 .119628909 .0120442709 .089680988 .005859375 C .059733076 0 .036458333 .0022786458 .01985677 .0126953129 C .003255207 .023111979 -.0000000012417635 .046223958 .010091145 .08203125 C .023111979 .119140628 .04101562 .15445964 .06380208 .18798828 C .069010417 .19514974 .07649739 .20019531 .086263019 .203125 C .09342448 .20475261 .099609378 .20345052 .1048177 .19921875 C .11035156 .1953125 .112467449 .19026692 .11116536 .18408203 C .106282558 .17236328 .10091146 .16064453 .09505208 .14892578 C .08919271 .13720703 .08528646 .1295573 .08333333 .12597656 C .0719401 .10514323 .06396484 .083333339 .05940755 .060546876 C .05940755 .047526044 .076822917 .04671224 .11165364 .05810547 C .14648438 .069498699 .18033855 .09033203 .21321614 .12060547 C .24609375 .15120442 .26171876 .16015625 .26009117 .14746094 C .25878907 .13509114 .24934896 .118489589 .23177083 .09765625 M .14680989 .26123048 L .14680989 .26123048 C .1451823 .25992839 .14176433 .25830079 .13655599 .25634767 C .13167317 .25472007 .12630208 .25341798 .1204427 .2524414 C .11490885 .25179038 .11051432 .25276695 .10725911 .2553711 C .104003909 .25797526 .10384115 .2631836 .10677083 .2709961 C .111979167 .28466798 .11735026 .29654948 .12288411 .30664063 C .12874349 .31705729 .13623047 .32845054 .14534505 .3408203 C .15120442 .34635417 .15755208 .34928385 .16438802 .34960938 C .17122396 .3502604 .17692058 .34847007 .18147786 .34423829 C .18603516 .34033204 .18733724 .3347982 .18538411 .32763673 C .17822266 .30192057 .16536458 .27978517 .14680989 .26123048 Z "/>
</symbol>
<symbol id="font_3_3">
<path d="M 0 0 Z "/>
</symbol>
<symbol id="font_3_25">
<path d="M 3.4845379 .10546875 L 3.4845379 .10546875 C 3.4858399 .10481771 3.4866536 .10335287 3.4869793 .10107422 C 3.4876302 .09879557 3.4879559 .09700521 3.4879559 .095703128 C 3.4869793 .09342448 3.4858399 .09163412 3.4845379 .09033203 C 3.4832357 .089029949 3.4817708 .087890628 3.4801434 .08691406 C 3.4736329 .0843099 3.4672852 .083333339 3.4611004 .083984378 C 3.4545899 .083984378 3.448405 .0843099 3.4425457 .08496094 C 3.439616 .08561198 3.4371746 .0859375 3.4352215 .0859375 C 3.404948 .08886719 3.3748372 .0921224 3.3448895 .095703128 C 3.274577 .102864589 3.2047528 .10970052 3.1354168 .11621094 C 3.0006512 .1282552 2.8657227 .13932292 2.7306317 .14941406 C 2.541504 .16243489 2.3520509 .17252605 2.1622723 .1796875 C 2.0262044 .18457031 1.8901367 .18815105 1.754069 .19042969 C 1.7390951 .19108074 1.7239584 .19140625 1.7086588 .19140625 C 1.6930338 .19140625 1.6777344 .19173177 1.6627604 .19238281 C 1.5703125 .19466146 1.4778646 .19580078 1.3854166 .19580078 L 1.3834635 .19580078 C 1.3291016 .19580078 1.2750651 .19466146 1.2213541 .19238281 C 1.2011719 .19173177 1.1814779 .19140625 1.1622721 .19140625 C 1.137858 .1907552 1.1131185 .18603516 1.0880534 .1772461 C .90022787 .11149088 .7104492 .06315104 .51871749 .032226564 C .4633789 .023111979 .40820313 .015462239 .3531901 .009277344 C .2981771 .003092448 .2430013 0 .18766277 0 C .16975911 0 .15185547 .00032552085 .13395183 .0009765625 C .106933597 .0009765625 .08089193 .0045572917 .055826826 .01171875 C .045735677 .0139973959 .036295576 .017252604 .02750651 .021484375 C .01969401 .024414063 .013020833 .028645834 .007486979 .034179689 C .0022786458 .03938802 -.000000000019402555 .04671224 .0006510416 .056152345 C .0022786458 .06526693 .006184896 .07307943 .012369792 .079589847 C .018880209 .08610026 .026204428 .09147135 .03434245 .095703128 C .05940755 .11002604 .08577474 .119628909 .11344401 .12451172 C .12711589 .12809246 .14111328 .13134766 .1554362 .13427735 C .20198567 .14501953 .24886067 .15397136 .2960612 .16113281 C .4851888 .18912761 .67366537 .20735677 .8614909 .21582031 C .8728841 .21679688 .88395187 .21761067 .89469406 .21826172 C .9526367 .2211914 1.0105795 .22363281 1.0685221 .22558594 C 1.0893555 .22623699 1.1101889 .23014324 1.1310221 .23730469 C 1.2026367 .2639974 1.2731119 .29378257 1.3424479 .32666017 C 1.4121094 .35953776 1.4801432 .3968099 1.5465494 .43847657 C 1.6018881 .47200523 1.652832 .51171877 1.6993815 .5576172 C 1.7257487 .5826823 1.747233 .6110026 1.7638346 .6425781 C 1.7859701 .68847659 1.781901 .7281901 1.7516276 .76171877 C 1.7301432 .7838542 1.7047526 .80110678 1.6754557 .81347659 C 1.6367188 .8313802 1.5963541 .8457031 1.5543619 .8564453 C 1.5126953 .8671875 1.4703776 .87646487 1.4274088 .88427737 C 1.3056641 .9041341 1.1814779 .9163411 1.0548502 .92089846 C 1.050293 .92089846 1.0458984 .92089846 1.0416666 .92089846 C 1.0367838 .92089846 1.0317383 .92089846 1.0265299 .92089846 C 1.0157877 .9192708 1.0076498 .91276046 1.0021159 .9013672 C .9991862 .8964844 .99658206 .89176437 .9943034 .88720706 C .98876956 .87646487 .98307296 .86572268 .97721359 .85498049 C .9322917 .76416018 .88753256 .67366537 .8429362 .5834961 C .80582687 .50667318 .7682292 .43033854 .73014327 .3544922 C .7294922 .3515625 .7285156 .3491211 .72721359 .34716798 C .72265627 .33772788 .71761068 .32877604 .71207687 .3203125 C .7055664 .31315104 .6980794 .31022135 .6896159 .31152345 C .68440756 .3108724 .679362 .3111979 .6744792 .3125 C .6656901 .31705729 .66276046 .32389323 .6656901 .3330078 C .6735026 .3531901 .6821289 .37288413 .69156906 .39208985 C .74820968 .51253256 .8048503 .632487 .8614909 .7519531 C .8800456 .79003909 .8982747 .8279622 .9161784 .86572268 C .91748049 .8693034 .9189453 .8725586 .92057296 .8754883 C .9248047 .88427737 .92871096 .8929036 .9322917 .9013672 C .9371745 .914388 .93326827 .92122396 .92057296 .921875 C .9140625 .92252609 .90755209 .92285159 .9010417 .92285159 C .8925781 .9235026 .88427737 .9241536 .87613937 .9248047 C .8748372 .9248047 .8730469 .9248047 .87076827 .9248047 C .8610026 .92578127 .8517253 .9274089 .8429362 .9296875 C .83447268 .9322917 .82942709 .93896487 .8277995 .94970706 C .8277995 .9617513 .83186849 .9707031 .84000656 .9765625 C .84847006 .9824219 .8577474 .9871419 .86783859 .99072268 C .87141928 .9920247 .8746745 .9930013 .8776042 .99365237 C .9046224 1.0050455 .9321289 1.0151367 .9601237 1.0239258 C .9630534 1.0252279 .9663086 1.0262045 .96988937 1.0268555 C .9913737 1.0333659 1.0074869 1.0470377 1.0182291 1.0678711 C 1.0660807 1.1586914 1.1140951 1.249349 1.1622721 1.3398438 C 1.1785482 1.3710938 1.1953125 1.402832 1.2125651 1.4350586 C 1.2148438 1.4396159 1.2169596 1.4440104 1.2189127 1.4482422 C 1.2231445 1.4573568 1.2281901 1.4663086 1.2340494 1.4750977 C 1.2412109 1.4858399 1.2504883 1.4900717 1.2618815 1.487793 C 1.2670899 1.488444 1.2721354 1.4881185 1.2770182 1.4868164 C 1.2877604 1.4819336 1.2910156 1.4736328 1.2867838 1.4619141 C 1.2867838 1.4612631 1.2864584 1.4609375 1.2858073 1.4609375 C 1.2776693 1.4365234 1.2679037 1.4129232 1.2565104 1.3901367 C 1.2285156 1.3351237 1.1998698 1.2799479 1.1705729 1.2246094 C 1.1614584 1.2060547 1.1518555 1.1875 1.1417643 1.1689453 C 1.136556 1.1595053 1.1315104 1.1502279 1.1266276 1.1411133 C 1.1181641 1.1251627 1.1098633 1.1090494 1.1017252 1.0927734 L 1.1007487 1.0913086 C 1.0994467 1.0887045 1.0983073 1.0859375 1.0973307 1.0830078 C 1.0966797 1.0800781 1.0981445 1.0779623 1.1017252 1.0766602 C 1.1040039 1.0756836 1.1062826 1.0748698 1.1085612 1.0742188 L 1.1105143 1.0751953 C 1.1147461 1.0761719 1.1194662 1.0773112 1.1246744 1.0786133 C 1.1259766 1.0792643 1.1272787 1.0799154 1.1285807 1.0805664 C 1.2854818 1.1300455 1.4422201 1.1813151 1.5987955 1.234375 C 1.7553711 1.2874349 1.9109701 1.344401 2.0655926 1.4052734 C 2.069173 1.4065756 2.0724285 1.4075521 2.0753582 1.4082031 C 2.1225587 1.4277344 2.1695965 1.4472656 2.2164715 1.4667969 C 2.2633465 1.4866537 2.3097332 1.5079752 2.3556317 1.5307617 C 2.3898113 1.5473633 2.4220379 1.5670573 2.4523113 1.5898438 C 2.5167645 1.6422526 2.5195313 1.6891276 2.460612 1.7304688 C 2.4329427 1.749349 2.4026693 1.7636719 2.3697918 1.7734375 C 2.3372396 1.7835287 2.3038738 1.7906901 2.269694 1.7949219 C 2.1879884 1.8072916 2.105306 1.8134766 2.0216473 1.8134766 L 2.0201824 1.8134766 C 1.9394531 1.8128256 1.8579102 1.8089193 1.7755534 1.8017578 C 1.5929362 1.7858073 1.4106445 1.7548828 1.2286784 1.7089844 C 1.0610352 1.6676432 .89664718 1.6111654 .73551437 1.5395508 C .6931966 1.5209961 .65201827 1.4998373 .6119792 1.4760742 C .60058596 1.4689127 .5891927 1.4624024 .5777995 1.456543 C .57128909 1.4539389 .5651042 1.4532877 .5592448 1.4545899 C .5514323 1.4532877 .54508468 1.4554037 .54020187 1.4609375 C .5366211 1.4661459 .5364583 1.4708659 .53971359 1.4750977 C .54296877 1.4793295 .5470378 1.4829102 .5519206 1.4858399 C .5864258 1.5102539 .6222331 1.530599 .65934249 1.546875 C .65999349 1.546875 .66064456 1.5472006 .6612956 1.5478516 C .8133138 1.6194662 .96875 1.6767578 1.1276041 1.7197266 C 1.3567709 1.7828776 1.5870768 1.8222656 1.8185221 1.8378906 C 1.8901367 1.843099 1.9614258 1.8457031 2.0323895 1.8457031 C 2.1095379 1.8463541 2.1860352 1.8424479 2.2618817 1.8339844 C 2.333496 1.8268229 2.40153 1.8102213 2.4659832 1.7841797 C 2.4962567 1.7727865 2.522461 1.7556967 2.5445965 1.7329102 C 2.5631512 1.7127279 2.571289 1.6904297 2.5690106 1.6660156 C 2.5670574 1.6419271 2.5553387 1.6180014 2.5338543 1.5942383 C 2.5065106 1.5668945 2.4760743 1.5442709 2.4425457 1.5263672 C 2.4018555 1.5035807 2.3603516 1.4829102 2.318034 1.4643555 C 2.275716 1.4458008 2.233073 1.4278971 2.1901043 1.4106445 C 2.188802 1.4099935 2.1870118 1.4091797 2.1847332 1.4082031 C 2.0349935 1.3466797 1.8839518 1.2895508 1.731608 1.2368164 C 1.5795899 1.1844076 1.4269205 1.1337891 1.2736002 1.0849609 C 1.2478842 1.0764974 1.222168 1.0678711 1.1964518 1.059082 C 1.1606445 1.0470377 1.1248373 1.035319 1.0890299 1.0239258 C 1.0734049 1.0203451 1.0608724 1.0117188 1.0514323 .9980469 C 1.0436198 .98502609 1.0402018 .9749349 1.0411784 .96777346 C 1.0421549 .960612 1.050293 .95670577 1.0655924 .9560547 C 1.1062826 .9547526 1.1469727 .9526367 1.1876627 .94970706 C 1.1905924 .94970706 1.1931967 .94970706 1.1954752 .94970706 C 1.2726237 .9448242 1.3487955 .93652346 1.4239909 .9248047 C 1.4991862 .91341146 1.5725912 .89664718 1.6442057 .8745117 C 1.6751303 .8644206 1.7049154 .85302737 1.7335612 .84033206 C 1.752767 .83154299 1.7709961 .8208008 1.7882487 .80810549 C 1.862142 .7508138 1.8675131 .67871096 1.8043619 .5917969 C 1.7835287 .56315109 1.7596029 .5371094 1.7325846 .5136719 C 1.6658529 .45638023 1.5942383 .40690104 1.5177409 .36523438 C 1.4516602 .32877604 1.3846029 .29508464 1.316569 .26416017 C 1.3087565 .261556 1.3006185 .25797526 1.2921549 .25341798 C 1.2879232 .25146485 1.2832031 .24934896 1.2779948 .24707031 C 1.2822266 .24055989 1.2861328 .23665364 1.2897135 .23535156 C 1.2932943 .23404949 1.2973633 .23372396 1.3019205 .234375 L 1.3028971 .234375 C 1.3149414 .23372396 1.3266602 .23339844 1.3380534 .23339844 L 1.3395182 .23339844 C 1.3473307 .23339844 1.3551432 .23372396 1.3629557 .234375 C 1.3987631 .234375 1.4345703 .234375 1.4703776 .234375 C 1.6829428 .23372396 1.8945313 .2290039 2.1051434 .22021485 C 2.3343099 .21240235 2.5625 .19840496 2.7897137 .17822266 C 2.8619793 .17203777 2.9342449 .16569011 3.0065106 .15917969 C 3.09375 .15201824 3.180827 .14453125 3.267741 .13671875 C 3.3185223 .13151042 3.3689779 .12532552 3.4191082 .11816406 C 3.4311524 .11686198 3.4436849 .11539713 3.4567059 .11376953 C 3.4658204 .112467449 3.4750977 .10970052 3.4845379 .10546875 M .95914718 .9638672 L .95914718 .9638672 C .9604492 .96451827 .9617513 .9658203 .9630534 .96777346 C .96468099 .97005209 .9658203 .97184249 .9664714 .97314456 C .9664714 .97477218 .9661458 .97591146 .9654948 .9765625 C .96484377 .97721359 .9637044 .97835287 .96207687 .97998049 L .9611003 .98095706 C .9532878 .9793294 .9461263 .97542318 .9396159 .9692383 C .9383138 .96761068 .9378255 .9658203 .93815109 .9638672 C .93847659 .96223959 .9397786 .9614258 .9420573 .9614258 C .9475911 .9614258 .9532878 .96223959 .95914718 .9638672 M .9054362 .16210938 L .9054362 .16210938 C .9067383 .16308594 .9082031 .16357422 .90983077 .16357422 C .9124349 .16422527 .91520187 .16552735 .91813156 .16748047 C .9210612 .16910808 .92317709 .17171224 .9244792 .17529297 C .92317709 .17822266 .921875 .18001302 .92057296 .18066406 C .9195964 .18066406 .91878256 .18066406 .91813156 .18066406 C .7449544 .17285156 .57128909 .15820313 .3971354 .13671875 C .3111979 .12662761 .22558594 .11051432 .14029949 .088378909 C .13834636 .087402347 .13623047 .08658854 .13395183 .0859375 C .11897787 .08300781 .10546875 .07698568 .09342448 .067871097 C .09049479 .065592449 .088541667 .06315104 .0875651 .060546876 C .08691406 .057617189 .088378909 .05501302 .09195963 .052734376 C .099121097 .049804689 .106770839 .04736328 .11490885 .045410158 C .14257813 .040201826 .17073567 .037597658 .19938152 .037597658 C .22379558 .037597658 .24820964 .03873698 .2726237 .041015626 C .48453776 .05891927 .6954753 .09928385 .9054362 .16210938 Z "/>
</symbol>
<symbol id="font_3_44">
<path d="M .41097007 .1393229 C .41878257 .13509114 .4194336 .12451171 .4129232 .10758463 C .40348307 .095214847 .39339195 .08365885 .38264976 .072916667 C .37190757 .06217448 .3601888 .052571615 .3474935 .04410807 C .34651695 .044108076 .34602867 .04378255 .34602867 .043131509 C .3375651 .037272134 .32861329 .03222656 .3191732 .02799479 C .2413737 -.000000002483527 .20166016 .016438799 .20003255 .077311199 C .16845703 .04996745 .14729817 .03320312 .13655599 .027018227 C .110839847 .011718747 .083007808 .00488281 .053059896 .006510414 C .030924479 .0078124979 .01595052 .014485675 .00813802 .026529946 C -.0000000012417635 .03889974 .0006510404 .0555013 .010091145 .07633463 C .024414063 .10921223 .044759115 .13850911 .0711263 .16422525 C .10205078 .1928711 .13639324 .21582031 .17415364 .2330729 C .19433594 .24316406 .2154948 .24707031 .2376302 .24479166 C .25976563 .24348958 .27311198 .23095703 .27766929 .207194 C .2796224 .20003255 .27783204 .19368489 .2722982 .18815103 C .26513673 .18164063 .25683595 .18017578 .24739583 .1837565 C .2467448 .18375652 .24576824 .18391927 .24446614 .18424478 C .24348958 .18457031 .24267578 .1850586 .24202474 .18570963 C .23258464 .19873047 .22298177 .20410156 .21321614 .2018229 C .20377605 .1998698 .19368489 .19563802 .1829427 .1891276 C .1328125 .15983072 .09554037 .11897785 .0711263 .06656901 C .06982421 .06429037 .069010417 .0616862 .06868489 .058756509 C .06835937 .056152345 .06917317 .054036458 .0711263 .05240885 C .07698567 .05045573 .083496097 .05078125 .09065755 .053385416 C .09781901 .056315107 .10498047 .060384115 .11214192 .065592449 C .11930338 .071126308 .12532552 .075683597 .13020833 .07926432 L .13118489 .080729167 C .15494792 .10058594 .17822266 .12093099 .20100911 .14176432 C .21110027 .1525065 .22363281 .15852864 .23860677 .15983072 C .26009117 .15983072 .26904298 .15022786 .26546226 .13102213 C .26350913 .12386068 .26139323 .11669922 .2591146 .10953776 C .25065104 .07861328 .25032554 .060384115 .25813804 .054850259 C .26595054 .049641927 .27783204 .049641927 .29378257 .054850259 C .3100586 .060384115 .32617188 .07063802 .3421224 .08561198 C .35839845 .10091146 .3720703 .114746097 .38313804 .12711588 C .39420573 .13981119 .40348307 .1438802 .41097007 .1393229 Z "/>
</symbol>
<symbol id="font_3_4f">
<path d="M .24316406 .13671875 L .24316406 .13671875 C .25390626 .14746094 .26285807 .15348308 .27001954 .15478516 C .277181 .15608724 .28173829 .15494792 .2836914 .15136719 C .28597007 .14778646 .28466798 .14290364 .27978517 .13671875 C .2511393 .10221354 .21907552 .07242838 .18359375 .04736328 C .14811199 .022298178 .11149088 .0078125 .07373047 .00390625 C .036295576 0 .013671875 .020507813 .005859375 .06542969 C 0 .11002604 .027018229 .20084636 .08691406 .33789063 C .14680989 .4749349 .19417317 .58723959 .2290039 .6748047 C .2319336 .6826172 .23632813 .6894531 .2421875 .6953125 C .25 .703125 .25927735 .70491537 .27001954 .7006836 C .27360026 .69905599 .277181 .69645187 .28076173 .6928711 C .28434245 .68929037 .28548179 .6829427 .2841797 .6738281 C .13020833 .30859376 .055664064 .11002604 .060546876 .078125 C .06542969 .046223958 .0859375 .0382487 .12207031 .05419922 C .15852864 .07047526 .18652344 .08691406 .20605469 .103515628 C .22591146 .12044271 .23828125 .13151042 .24316406 .13671875 Z "/>
</symbol>
<symbol id="font_3_57">
<path d="M .3297526 .14632163 C .2861328 .09488932 .24332683 .056966146 .20133464 .032552087 C .15966797 .008138023 .11490885 .000000002483527 .06705729 .008138023 C .019531249 .016601565 -.00000000062088176 .048665365 .008463541 .10432943 C .014322917 .13232424 .022298178 .15966799 .03238932 .18636069 C .057454427 .24853516 .082845058 .31038413 .108561199 .37190757 C .11702474 .39404298 .12597656 .41634117 .13541667 .4388021 C .13769531 .4436849 .1398112 .44856773 .14176433 .45345054 C .14534505 .46158854 .14892578 .4698893 .15250652 .47835288 C .15771485 .49267579 .15201824 .5001628 .13541667 .5008138 C .12597656 .5008138 .11669922 .5008138 .10758463 .5008138 C .10335287 .5008138 .09863281 .5008138 .09342448 .5008138 C .088541667 .5001628 .083496097 .49951173 .07828776 .4988607 C .06982422 .49820964 .061360677 .49788413 .052897134 .49788413 C .044759115 .49788413 .03710937 .5 .029947916 .50423178 C .027994791 .5048828 .026367188 .50602218 .025065104 .5076497 C .024088541 .50960287 .02360026 .51171877 .02360026 .5139974 C .024251303 .5152995 .025227866 .51676437 .026529948 .5183919 C .028157553 .52034506 .030110678 .52164718 .03238932 .52229818 C .039550779 .52522787 .04703776 .52734377 .054850259 .5286458 C .075032558 .5296224 .095052089 .5304362 .11490885 .5310872 C .12272135 .5310872 .1295573 .5310872 .13541667 .5310872 C .1484375 .5310872 .15804036 .5315755 .16422527 .53255209 C .17073567 .5335286 .17594402 .5369466 .17985027 .54280599 C .18375652 .54866537 .1883138 .5576172 .19352214 .56966146 C .19645183 .5761719 .20003255 .5833333 .20426433 .5911458 C .21500652 .6139323 .2257487 .63720706 .23649089 .66097006 C .2413737 .6717122 .24641927 .6821289 .2516276 .69222006 C .25585938 .7023112 .26253257 .7101237 .27164714 .71565756 C .2804362 .71988937 .28808595 .7195638 .29459635 .71468099 C .29654948 .7133789 .2980143 .711263 .29899089 .7083333 C .30029298 .7054036 .300944 .7027995 .300944 .7005208 C .300944 .6878255 .2976888 .67529299 .29117839 .66292318 C .2898763 .66031906 .28841148 .65722659 .28678385 .6536458 C .2825521 .64192709 .27799479 .6300456 .27311198 .6180013 C .26367188 .5958659 .25472007 .5732422 .24625652 .5501302 C .24397786 .54589846 .24381511 .54215499 .24576824 .5388997 C .24804688 .53564456 .2513021 .5340169 .25553385 .5340169 C .27864585 .5333659 .30126954 .53304037 .32340495 .53304037 C .3347982 .53304037 .3461914 .53304037 .35758464 .53304037 C .39339195 .53238937 .40771485 .52734377 .40055339 .5179036 C .39567057 .5123698 .39029948 .50911459 .3844401 .508138 C .37890626 .507487 .37320964 .5076497 .36735026 .5086263 C .36376954 .5086263 .3601888 .5086263 .35660807 .5086263 C .32014976 .50634768 .28401695 .5048828 .24820964 .50423178 C .23160808 .50423178 .22054036 .49674479 .21500652 .48177085 C .20914714 .4674479 .20345052 .453125 .19791667 .4388021 C .18977864 .41992188 .1821289 .40152995 .17496746 .3836263 C .16780599 .36669923 .16064453 .34960938 .15348308 .33235679 C .13492839 .28873698 .11702474 .24495442 .09977213 .20100913 C .089029949 .17236328 .080566409 .14306642 .07438151 .11311849 C .060709638 .05875651 .08170573 .03792318 .1373698 .050618493 C .1920573 .06363932 .24934896 .103027347 .30924479 .16878256 C .33528648 .18538411 .3421224 .17789714 .3297526 .14632163 Z "/>
</symbol>
<use xlink:href="#font_3_24" transform="matrix(98.70646,-16.032273,-16.032273,-98.70646,176.5553,701.1667)"/>
<use xlink:href="#font_3_5d" transform="matrix(98.70646,-16.032273,-16.032273,-98.70646,381.52525,605.7923)"/>
<use xlink:href="#font_3_4c" transform="matrix(98.70646,-16.032273,-16.032273,-98.70646,409.43067,603.17257)"/>
<use xlink:href="#font_3_5d" transform="matrix(98.70646,-16.032273,-16.032273,-98.70646,424.36387,598.8343)"/>
<use xlink:href="#font_3_3" transform="matrix(98.70646,-16.032273,-16.032273,-98.70646,457.74259,606.258)"/>
<use xlink:href="#font_3_25" transform="matrix(98.70646,-16.032273,-16.032273,-98.70646,501.09413,642.79806)"/>
<use xlink:href="#font_3_44" transform="matrix(98.70646,-16.032273,-16.032273,-98.70646,678.08456,559.4049)"/>
<use xlink:href="#font_3_4f" transform="matrix(98.70646,-16.032273,-16.032273,-98.70646,715.22238,554.69198)"/>
<use xlink:href="#font_3_57" transform="matrix(98.70646,-16.032273,-16.032273,-98.70646,737.6626,551.7232)"/>
<use xlink:href="#font_3_4c" transform="matrix(98.70646,-16.032273,-16.032273,-98.70646,763.392,545.68087)"/>
</g>
</g>
<clipPath id="cp4">
<path transform="matrix(.6666666,0,0,.6666666,0,0)" d="M 0 0 L 1562.5 0 L 1562.5 1562.5 L 0 1562.5 Z "/>
</clipPath>
<g clip-path="url(#cp4)">
<clipPath id="cp5">
<path transform="matrix(.6666666,0,0,.6666666,0,0)" d="M 0 0 L 1562.5 0 L 1562.5 1562.5 L 0 1562.5 Z "/>
</clipPath>
<g clip-path="url(#cp5)">
<clipPath id="cp6">
<path transform="matrix(.6666666,0,0,.6666666,0,0)" d="M 1196.1146 784.375 L 1213.0663 784.375 L 1213.0663 801.32669 L 1196.1146 801.32669 Z "/>
</clipPath>
<g clip-path="url(#cp6)">
<clipPath id="cp7">
<path transform="matrix(.6666666,0,0,.6666666,0,0)" d="M 1204.5905 784.375 C 1199.9094 784.375 1196.1146 788.16976 1196.1146 792.8508 C 1196.1146 797.5319 1199.9094 801.32669 1204.5905 801.32669 C 1209.2715 801.32669 1213.0663 797.5319 1213.0663 792.8508 C 1213.0663 788.16976 1209.2715 784.375 1204.5905 784.375 Z "/>
</clipPath>
<g clip-path="url(#cp7)">
<path transform="matrix(.04414492,0,0,.04414492,797.4097,522.9166)" d="M 0 0 L 256 0 L 256 256 L 0 256 Z "/>
</g>
</g>
</g>
</g>
</g>
</svg>
